<svg width="67" height="59" viewBox="0 0 67 59" fill="none" xmlns="http://www.w3.org/2000/svg">
<path fill-rule="evenodd" clip-rule="evenodd" d="M38.4474 57.6187C50.3655 53.8297 59 42.6732 59 29.5C59 26.3831 58.5166 23.3791 57.6207 20.5589C63.2419 24.325 66.9423 30.7352 66.9423 38.0096C66.9423 49.6023 57.5446 59 45.9519 59C43.3077 59 40.7777 58.5111 38.4474 57.6187ZM38.4474 57.6187C35.6254 58.5159 32.6192 59 29.5 59C13.2076 59 0 45.7924 0 29.5C0 13.2076 13.2076 0 29.5 0C42.6755 0 53.8336 8.63749 57.6207 20.5589C54.2839 18.3232 50.2702 17.0192 45.9519 17.0192C34.3593 17.0192 24.9615 26.4169 24.9615 38.0096C24.9615 46.9581 30.5611 54.5987 38.4474 57.6187Z" fill="black"/>
</svg>
